<svg xmlns="http://www.w3.org/2000/svg" xmlns:xlink="http://www.w3.org/1999/xlink" xmlns:lucid="lucid" width="1801" height="2041"><g transform="translate(-199.5 -79.5)" lucid:page-tab-id="0_0"><path d="M220 106a6 6 0 0 1 6-6h628a6 6 0 0 1 6 6v28a6 6 0 0 1-6 6H226a6 6 0 0 1-6-6z" stroke="#3a414a" fill="#fff"/><use xlink:href="#a" transform="matrix(1,0,0,1,225,105) translate(197.28395061728395 19.65277777777778)"/><use xlink:href="#b" transform="matrix(1,0,0,1,225,105) translate(272.4691358024691 19.65277777777778)"/><use xlink:href="#c" transform="matrix(1,0,0,1,225,105) translate(352.6543209876543 19.65277777777778)"/><use xlink:href="#d" transform="matrix(1,0,0,1,225,105) translate(372.4074074074074 19.65277777777778)"/><path d="M220 166a6 6 0 0 1 6-6h288a6 6 0 0 1 6 6v148a6 6 0 0 1-6 6H226a6 6 0 0 1-6-6z" stroke="#3a414a" fill="#fff"/><use xlink:href="#e" transform="matrix(1,0,0,1,225,165) translate(92.34876543209879 31.31944444444444)"/><use xlink:href="#f" transform="matrix(1,0,0,1,225,165) translate(114.81790123456791 31.31944444444444)"/><use xlink:href="#g" transform="matrix(1,0,0,1,225,165) translate(179.50308641975306 31.31944444444444)"/><use xlink:href="#h" transform="matrix(1,0,0,1,225,165) translate(145 53.54166666666666)"/><use xlink:href="#i" transform="matrix(1,0,0,1,225,165) translate(101.16666666666667 77.54166666666666)"/><use xlink:href="#h" transform="matrix(1,0,0,1,225,165) translate(145 101.54166666666666)"/><use xlink:href="#j" transform="matrix(1,0,0,1,225,165) translate(81.13888888888889 125.54166666666666)"/><use xlink:href="#k" transform="matrix(1,0,0,1,225,165) translate(163.30555555555554 125.54166666666666)"/><use xlink:href="#l" transform="matrix(1,0,0,1,225,165) translate(197.75 125.54166666666666)"/><path d="M560 166a6 6 0 0 1 6-6h288a6 6 0 0 1 6 6v148a6 6 0 0 1-6 6H566a6 6 0 0 1-6-6z" stroke="#3a414a" fill="#fff"/><use xlink:href="#e" transform="matrix(1,0,0,1,565,165) translate(78.73765432098767 31.31944444444444)"/><use xlink:href="#m" transform="matrix(1,0,0,1,565,165) translate(101.2067901234568 31.31944444444444)"/><use xlink:href="#g" transform="matrix(1,0,0,1,565,165) translate(193.11419753086417 31.31944444444444)"/><use xlink:href="#h" transform="matrix(1,0,0,1,565,165) translate(145 53.54166666666666)"/><use xlink:href="#n" transform="matrix(1,0,0,1,565,165) translate(76.19444444444444 77.54166666666666)"/><use xlink:href="#h" transform="matrix(1,0,0,1,565,165) translate(145 101.54166666666666)"/><use xlink:href="#o" transform="matrix(1,0,0,1,565,165) translate(70.66666666666669 125.54166666666666)"/><use xlink:href="#p" transform="matrix(1,0,0,1,565,165) translate(157.22222222222223 125.54166666666666)"/><path d="M940 106a6 6 0 0 1 6-6h628a6 6 0 0 1 6 6v28a6 6 0 0 1-6 6H946a6 6 0 0 1-6-6z" stroke="#3a414a" fill="#fff"/><use xlink:href="#a" transform="matrix(1,0,0,1,945,105) translate(196.66666666666669 19.65277777777778)"/><use xlink:href="#b" transform="matrix(1,0,0,1,945,105) translate(271.85185185185185 19.65277777777778)"/><use xlink:href="#q" transform="matrix(1,0,0,1,945,105) translate(352.03703703703707 19.65277777777778)"/><use xlink:href="#r" transform="matrix(1,0,0,1,945,105) translate(373.0246913580247 19.65277777777778)"/><path d="M940 166a6 6 0 0 1 6-6h288a6 6 0 0 1 6 6v148a6 6 0 0 1-6 6H946a6 6 0 0 1-6-6z" stroke="#3a414a" fill="#fff"/><use xlink:href="#e" transform="matrix(1,0,0,1,945,165) translate(82.88580246913583 40.75694444444444)"/><use xlink:href="#s" transform="matrix(1,0,0,1,945,165) translate(105.35493827160495 40.75694444444444)"/><use xlink:href="#g" transform="matrix(1,0,0,1,945,165) translate(188.96604938271605 40.75694444444444)"/><use xlink:href="#h" transform="matrix(1,0,0,1,945,165) translate(145 62.97916666666666)"/><use xlink:href="#t" transform="matrix(1,0,0,1,945,165) translate(98.47222222222223 86.97916666666666)"/><use xlink:href="#j" transform="matrix(1,0,0,1,945,165) translate(28.41666666666667 110.97916666666666)"/><use xlink:href="#u" transform="matrix(1,0,0,1,945,165) translate(110.58333333333333 110.97916666666666)"/><path d="M1280 166a6 6 0 0 1 6-6h288a6 6 0 0 1 6 6v148a6 6 0 0 1-6 6h-288a6 6 0 0 1-6-6z" stroke="#3a414a" fill="#fff"/><use xlink:href="#e" transform="matrix(1,0,0,1,1285,165) translate(78.73765432098767 40.56944444444444)"/><use xlink:href="#m" transform="matrix(1,0,0,1,1285,165) translate(101.2067901234568 40.56944444444444)"/><use xlink:href="#g" transform="matrix(1,0,0,1,1285,165) translate(193.11419753086417 40.56944444444444)"/><use xlink:href="#h" transform="matrix(1,0,0,1,1285,165) translate(145 62.79166666666666)"/><use xlink:href="#v" transform="matrix(1,0,0,1,1285,165) translate(112.27777777777777 86.79166666666666)"/><use xlink:href="#w" transform="matrix(1,0,0,1,1285,165) translate(5.722222222222257 110.79166666666666)"/><use xlink:href="#x" transform="matrix(1,0,0,1,1285,165) translate(57.88888888888892 110.79166666666666)"/><use xlink:href="#y" transform="matrix(1,0,0,1,1285,165) translate(228.77777777777777 110.79166666666666)"/><path d="M1660 106a6 6 0 0 1 6-6h308a6 6 0 0 1 6 6v28a6 6 0 0 1-6 6h-308a6 6 0 0 1-6-6z" stroke="#3a414a" fill="#fff"/><use xlink:href="#a" transform="matrix(1,0,0,1,1665,105) translate(35.49382716049385 19.65277777777778)"/><use xlink:href="#b" transform="matrix(1,0,0,1,1665,105) translate(110.67901234567903 19.65277777777778)"/><use xlink:href="#z" transform="matrix(1,0,0,1,1665,105) translate(190.8641975308642 19.65277777777778)"/><use xlink:href="#A" transform="matrix(1,0,0,1,1665,105) translate(213.02469135802468 19.65277777777778)"/><path d="M1660 166a6 6 0 0 1 6-6h308a6 6 0 0 1 6 6v148a6 6 0 0 1-6 6h-308a6 6 0 0 1-6-6z" stroke="#3a414a" fill="#fff"/><use xlink:href="#e" transform="matrix(1,0,0,1,1665,165) translate(88.73765432098767 31.31944444444444)"/><use xlink:href="#m" transform="matrix(1,0,0,1,1665,165) translate(111.2067901234568 31.31944444444444)"/><use xlink:href="#g" transform="matrix(1,0,0,1,1665,165) translate(203.11419753086417 31.31944444444444)"/><use xlink:href="#h" transform="matrix(1,0,0,1,1665,165) translate(155 53.54166666666666)"/><use xlink:href="#n" transform="matrix(1,0,0,1,1665,165) translate(86.19444444444444 77.54166666666666)"/><use xlink:href="#h" transform="matrix(1,0,0,1,1665,165) translate(155 101.54166666666666)"/><use xlink:href="#o" transform="matrix(1,0,0,1,1665,165) translate(90.05555555555557 125.54166666666666)"/><use xlink:href="#B" transform="matrix(1,0,0,1,1665,165) translate(176.61111111111111 125.54166666666666)"/><path d="M940 486a6 6 0 0 1 6-6h628a6 6 0 0 1 6 6v28a6 6 0 0 1-6 6H946a6 6 0 0 1-6-6z" stroke="#3a414a" fill="#fff"/><g><use xlink:href="#C" transform="matrix(1,0,0,1,945,485) translate(200.9567901234568 19.65277777777778)"/><use xlink:href="#D" transform="matrix(1,0,0,1,945,485) translate(267.5617283950618 19.65277777777778)"/><use xlink:href="#E" transform="matrix(1,0,0,1,945,485) translate(371.01851851851853 19.65277777777778)"/></g><path d="M1430 321v142.12" stroke="#3a414a" fill="none"/><path d="M1430.5 321h-1v-.5h1z" stroke="#3a414a" stroke-width=".05" fill="#3a414a"/><path d="M1430 477.88l-4.63-14.26h9.27z" stroke="#3a414a" fill="#3a414a"/><path d="M1820 321v173a6 6 0 0 1-6 6h-217.12" stroke="#3a414a" fill="none"/><path d="M1820.5 321h-1v-.5h1z" stroke="#3a414a" stroke-width=".05" fill="#3a414a"/><path d="M1582.12 500l14.26-4.63v9.26z" stroke="#3a414a" fill="#3a414a"/><path d="M1090 321v142.12" stroke="#3a414a" fill="none"/><path d="M1090.5 321h-1v-.5h1z" stroke="#3a414a" stroke-width=".05" fill="#3a414a"/><path d="M1090 477.88l-4.63-14.26h9.27z" stroke="#3a414a" fill="#3a414a"/><path d="M710 321v173a6 6 0 0 0 6 6h207.12" stroke="#3a414a" fill="none"/><path d="M710.5 321h-1v-.5h1z" stroke="#3a414a" stroke-width=".05" fill="#3a414a"/><path d="M937.88 500l-14.26 4.63v-9.26z" stroke="#3a414a" fill="#3a414a"/><path d="M370 321v173a6 6 0 0 0 6 6h547.12" stroke="#3a414a" fill="none"/><path d="M370.5 321h-1v-.5h1z" stroke="#3a414a" stroke-width=".05" fill="#3a414a"/><path d="M937.88 500l-14.26 4.63v-9.26z" stroke="#3a414a" fill="#3a414a"/><path d="M920 546a6 6 0 0 1 6-6h668a6 6 0 0 1 6 6v428a6 6 0 0 1-6 6H926a6 6 0 0 1-6-6z" stroke="#3a414a" fill="#f2f3f5"/><g><use xlink:href="#F" transform="matrix(1,0,0,1,925,545) translate(20 36)"/><use xlink:href="#G" transform="matrix(1,0,0,1,925,545) translate(91.99999999999999 36)"/></g><path d="M940 626a6 6 0 0 1 6-6h288a6 6 0 0 1 6 6v148a6 6 0 0 1-6 6H946a6 6 0 0 1-6-6z" stroke="#3a414a" fill="#fff"/><g><use xlink:href="#e" transform="matrix(1,0,0,1,945,625) translate(78.73765432098767 31.31944444444444)"/><use xlink:href="#m" transform="matrix(1,0,0,1,945,625) translate(101.2067901234568 31.31944444444444)"/><use xlink:href="#g" transform="matrix(1,0,0,1,945,625) translate(193.11419753086417 31.31944444444444)"/><use xlink:href="#h" transform="matrix(1,0,0,1,945,625) translate(145 53.54166666666666)"/><use xlink:href="#n" transform="matrix(1,0,0,1,945,625) translate(76.19444444444444 77.54166666666666)"/><use xlink:href="#h" transform="matrix(1,0,0,1,945,625) translate(145 101.54166666666666)"/><use xlink:href="#o" transform="matrix(1,0,0,1,945,625) translate(70.66666666666669 125.54166666666666)"/><use xlink:href="#p" transform="matrix(1,0,0,1,945,625) translate(157.22222222222223 125.54166666666666)"/></g><path d="M920 1286a6 6 0 0 1 6-6h668a6 6 0 0 1 6 6v248a6 6 0 0 1-6 6H926a6 6 0 0 1-6-6z" stroke="#3a414a" fill="#f2f3f5"/><g><use xlink:href="#H" transform="matrix(1,0,0,1,925,1285) translate(20 36)"/><use xlink:href="#I" transform="matrix(1,0,0,1,925,1285) translate(139.66666666666663 36)"/></g><path d="M940 806a6 6 0 0 1 6-6h288a6 6 0 0 1 6 6v148a6 6 0 0 1-6 6H946a6 6 0 0 1-6-6z" stroke="#3a414a" fill="#fff"/><g><use xlink:href="#e" transform="matrix(1,0,0,1,945,805) translate(78.73765432098767 40.56944444444444)"/><use xlink:href="#m" transform="matrix(1,0,0,1,945,805) translate(101.2067901234568 40.56944444444444)"/><use xlink:href="#g" transform="matrix(1,0,0,1,945,805) translate(193.11419753086417 40.56944444444444)"/><use xlink:href="#h" transform="matrix(1,0,0,1,945,805) translate(145 62.79166666666666)"/><use xlink:href="#v" transform="matrix(1,0,0,1,945,805) translate(112.27777777777777 86.79166666666666)"/><use xlink:href="#w" transform="matrix(1,0,0,1,945,805) translate(5.722222222222257 110.79166666666666)"/><use xlink:href="#x" transform="matrix(1,0,0,1,945,805) translate(57.88888888888892 110.79166666666666)"/><use xlink:href="#y" transform="matrix(1,0,0,1,945,805) translate(228.77777777777777 110.79166666666666)"/></g><path d="M1260 626a6 6 0 0 1 6-6h308a6 6 0 0 1 6 6v148a6 6 0 0 1-6 6h-308a6 6 0 0 1-6-6z" stroke="#3a414a" fill="#fff"/><g><use xlink:href="#e" transform="matrix(1,0,0,1,1265,625) translate(88.73765432098767 31.31944444444444)"/><use xlink:href="#m" transform="matrix(1,0,0,1,1265,625) translate(111.2067901234568 31.31944444444444)"/><use xlink:href="#g" transform="matrix(1,0,0,1,1265,625) translate(203.11419753086417 31.31944444444444)"/><use xlink:href="#h" transform="matrix(1,0,0,1,1265,625) translate(155 53.54166666666666)"/><use xlink:href="#n" transform="matrix(1,0,0,1,1265,625) translate(86.19444444444444 77.54166666666666)"/><use xlink:href="#h" transform="matrix(1,0,0,1,1265,625) translate(155 101.54166666666666)"/><use xlink:href="#o" transform="matrix(1,0,0,1,1265,625) translate(90.05555555555557 125.54166666666666)"/><use xlink:href="#B" transform="matrix(1,0,0,1,1265,625) translate(176.61111111111111 125.54166666666666)"/></g><path d="M920 1006a6 6 0 0 1 6-6h668a6 6 0 0 1 6 6v248a6 6 0 0 1-6 6H926a6 6 0 0 1-6-6z" stroke="#3a414a" fill="#f2f3f5"/><g><use xlink:href="#H" transform="matrix(1,0,0,1,925,1005) translate(20 36)"/><use xlink:href="#J" transform="matrix(1,0,0,1,925,1005) translate(139.66666666666663 36)"/></g><path d="M940 1086a6 6 0 0 1 6-6h288a6 6 0 0 1 6 6v148a6 6 0 0 1-6 6H946a6 6 0 0 1-6-6z" stroke="#3a414a" fill="#fff"/><g><use xlink:href="#e" transform="matrix(1,0,0,1,945,1085) translate(92.34876543209879 31.31944444444444)"/><use xlink:href="#f" transform="matrix(1,0,0,1,945,1085) translate(114.81790123456791 31.31944444444444)"/><use xlink:href="#g" transform="matrix(1,0,0,1,945,1085) translate(179.50308641975306 31.31944444444444)"/><use xlink:href="#h" transform="matrix(1,0,0,1,945,1085) translate(145 53.54166666666666)"/><use xlink:href="#i" transform="matrix(1,0,0,1,945,1085) translate(101.16666666666667 77.54166666666666)"/><use xlink:href="#h" transform="matrix(1,0,0,1,945,1085) translate(145 101.54166666666666)"/><use xlink:href="#j" transform="matrix(1,0,0,1,945,1085) translate(81.13888888888889 125.54166666666666)"/><use xlink:href="#k" transform="matrix(1,0,0,1,945,1085) translate(163.30555555555554 125.54166666666666)"/><use xlink:href="#l" transform="matrix(1,0,0,1,945,1085) translate(197.75 125.54166666666666)"/></g><path d="M940 1366a6 6 0 0 1 6-6h288a6 6 0 0 1 6 6v148a6 6 0 0 1-6 6H946a6 6 0 0 1-6-6z" stroke="#3a414a" fill="#fff"/><g><use xlink:href="#e" transform="matrix(1,0,0,1,945,1365) translate(82.88580246913583 40.75694444444444)"/><use xlink:href="#s" transform="matrix(1,0,0,1,945,1365) translate(105.35493827160495 40.75694444444444)"/><use xlink:href="#g" transform="matrix(1,0,0,1,945,1365) translate(188.96604938271605 40.75694444444444)"/><use xlink:href="#h" transform="matrix(1,0,0,1,945,1365) translate(145 62.97916666666666)"/><use xlink:href="#t" transform="matrix(1,0,0,1,945,1365) translate(98.47222222222223 86.97916666666666)"/><use xlink:href="#j" transform="matrix(1,0,0,1,945,1365) translate(28.41666666666667 110.97916666666666)"/><use xlink:href="#u" transform="matrix(1,0,0,1,945,1365) translate(110.58333333333333 110.97916666666666)"/></g><path d="M940 1706a6 6 0 0 1 6-6h628a6 6 0 0 1 6 6v28a6 6 0 0 1-6 6H946a6 6 0 0 1-6-6z" stroke="#3a414a" fill="#fff"/><g><use xlink:href="#a" transform="matrix(1,0,0,1,945,1705) translate(195.49382716049385 19.65277777777778)"/><use xlink:href="#b" transform="matrix(1,0,0,1,945,1705) translate(270.67901234567904 19.65277777777778)"/><use xlink:href="#K" transform="matrix(1,0,0,1,945,1705) translate(350.8641975308642 19.65277777777778)"/><use xlink:href="#L" transform="matrix(1,0,0,1,945,1705) translate(373.0246913580247 19.65277777777778)"/></g><path d="M940 1766a6 6 0 0 1 6-6h288a6 6 0 0 1 6 6v148a6 6 0 0 1-6 6H946a6 6 0 0 1-6-6z" stroke="#3a414a" fill="#fff"/><g><use xlink:href="#e" transform="matrix(1,0,0,1,945,1765) translate(82.88580246913583 40.75694444444444)"/><use xlink:href="#s" transform="matrix(1,0,0,1,945,1765) translate(105.35493827160495 40.75694444444444)"/><use xlink:href="#g" transform="matrix(1,0,0,1,945,1765) translate(188.96604938271605 40.75694444444444)"/><use xlink:href="#h" transform="matrix(1,0,0,1,945,1765) translate(145 62.97916666666666)"/><use xlink:href="#t" transform="matrix(1,0,0,1,945,1765) translate(98.47222222222223 86.97916666666666)"/><use xlink:href="#j" transform="matrix(1,0,0,1,945,1765) translate(28.41666666666667 110.97916666666666)"/><use xlink:href="#u" transform="matrix(1,0,0,1,945,1765) translate(110.58333333333333 110.97916666666666)"/></g><path d="M1280 1766a6 6 0 0 1 6-6h288a6 6 0 0 1 6 6v148a6 6 0 0 1-6 6h-288a6 6 0 0 1-6-6z" stroke="#3a414a" fill="#fff"/><g><use xlink:href="#e" transform="matrix(1,0,0,1,1285,1765) translate(92.34876543209879 40.75694444444444)"/><use xlink:href="#f" transform="matrix(1,0,0,1,1285,1765) translate(114.81790123456791 40.75694444444444)"/><use xlink:href="#g" transform="matrix(1,0,0,1,1285,1765) translate(179.50308641975306 40.75694444444444)"/><use xlink:href="#h" transform="matrix(1,0,0,1,1285,1765) translate(145 62.97916666666666)"/><use xlink:href="#M" transform="matrix(1,0,0,1,1285,1765) translate(93.94444444444446 86.97916666666666)"/><use xlink:href="#j" transform="matrix(1,0,0,1,1285,1765) translate(12.361111111111143 110.97916666666666)"/><use xlink:href="#N" transform="matrix(1,0,0,1,1285,1765) translate(94.5277777777778 110.97916666666666)"/><use xlink:href="#O" transform="matrix(1,0,0,1,1285,1765) translate(259.91666666666663 110.97916666666666)"/></g><path d="M940 1946a6 6 0 0 1 6-6h288a6 6 0 0 1 6 6v148a6 6 0 0 1-6 6H946a6 6 0 0 1-6-6z" stroke="#3a414a" fill="#fff"/><g><use xlink:href="#e" transform="matrix(1,0,0,1,945,1945) translate(78.73765432098767 40.75694444444444)"/><use xlink:href="#m" transform="matrix(1,0,0,1,945,1945) translate(101.2067901234568 40.75694444444444)"/><use xlink:href="#g" transform="matrix(1,0,0,1,945,1945) translate(193.11419753086417 40.75694444444444)"/><use xlink:href="#h" transform="matrix(1,0,0,1,945,1945) translate(145 62.97916666666666)"/><use xlink:href="#v" transform="matrix(1,0,0,1,945,1945) translate(112.27777777777777 86.97916666666666)"/><use xlink:href="#w" transform="matrix(1,0,0,1,945,1945) translate(5.722222222222257 110.97916666666666)"/><use xlink:href="#x" transform="matrix(1,0,0,1,945,1945) translate(57.88888888888892 110.97916666666666)"/><use xlink:href="#P" transform="matrix(1,0,0,1,945,1945) translate(228.77777777777777 110.97916666666666)"/></g><path d="M1260 1541v142.12" stroke="#3a414a" fill="none"/><path d="M1260.5 1541h-1v-.5h1z" stroke="#3a414a" stroke-width=".05" fill="#3a414a"/><path d="M1260 1697.88l-4.63-14.26h9.27z" stroke="#3a414a" fill="#3a414a"/><defs><path fill="#3a414a" d="M30-248c118-7 216 8 213 122C240-48 200 0 122 0H30v-248zM63-27c89 8 146-16 146-99s-60-101-146-95v194" id="Q"/><path fill="#3a414a" d="M100-194c63 0 86 42 84 106H49c0 40 14 67 53 68 26 1 43-12 49-29l28 8c-11 28-37 45-77 45C44 4 14-33 15-96c1-61 26-98 85-98zm52 81c6-60-76-77-97-28-3 7-6 17-6 28h103" id="R"/><path fill="#3a414a" d="M135-143c-3-34-86-38-87 0 15 53 115 12 119 90S17 21 10-45l28-5c4 36 97 45 98 0-10-56-113-15-118-90-4-57 82-63 122-42 12 7 21 19 24 35" id="S"/><path fill="#3a414a" d="M24-231v-30h32v30H24zM24 0v-190h32V0H24" id="T"/><path fill="#3a414a" d="M177-190C167-65 218 103 67 71c-23-6-38-20-44-43l32-5c15 47 100 32 89-28v-30C133-14 115 1 83 1 29 1 15-40 15-95c0-56 16-97 71-98 29-1 48 16 59 35 1-10 0-23 2-32h30zM94-22c36 0 50-32 50-73 0-42-14-75-50-75-39 0-46 34-46 75s6 73 46 73" id="U"/><path fill="#3a414a" d="M117-194c89-4 53 116 60 194h-32v-121c0-31-8-49-39-48C34-167 62-67 57 0H25l-1-190h30c1 10-1 24 2 32 11-22 29-35 61-36" id="V"/><g id="a"><use transform="matrix(0.06172839506172839,0,0,0.06172839506172839,0,0)" xlink:href="#Q"/><use transform="matrix(0.06172839506172839,0,0,0.06172839506172839,15.987654320987653,0)" xlink:href="#R"/><use transform="matrix(0.06172839506172839,0,0,0.06172839506172839,28.333333333333332,0)" xlink:href="#S"/><use transform="matrix(0.06172839506172839,0,0,0.06172839506172839,39.44444444444444,0)" xlink:href="#T"/><use transform="matrix(0.06172839506172839,0,0,0.06172839506172839,44.32098765432099,0)" xlink:href="#U"/><use transform="matrix(0.06172839506172839,0,0,0.06172839506172839,56.666666666666664,0)" xlink:href="#V"/></g><path fill="#3a414a" d="M185-189c-5-48-123-54-124 2 14 75 158 14 163 119 3 78-121 87-175 55-17-10-28-26-33-46l33-7c5 56 141 63 141-1 0-78-155-14-162-118-5-82 145-84 179-34 5 7 8 16 11 25" id="W"/><path fill="#3a414a" d="M179-190L93 31C79 59 56 82 12 73V49c39 6 53-20 64-50L1-190h34L92-34l54-156h33" id="X"/><path fill="#3a414a" d="M59-47c-2 24 18 29 38 22v24C64 9 27 4 27-40v-127H5v-23h24l9-43h21v43h35v23H59v120" id="Y"/><path fill="#3a414a" d="M210-169c-67 3-38 105-44 169h-31v-121c0-29-5-50-35-48C34-165 62-65 56 0H25l-1-190h30c1 10-1 24 2 32 10-44 99-50 107 0 11-21 27-35 58-36 85-2 47 119 55 194h-31v-121c0-29-5-49-35-48" id="Z"/><g id="b"><use transform="matrix(0.06172839506172839,0,0,0.06172839506172839,0,0)" xlink:href="#W"/><use transform="matrix(0.06172839506172839,0,0,0.06172839506172839,14.814814814814813,0)" xlink:href="#X"/><use transform="matrix(0.06172839506172839,0,0,0.06172839506172839,25.925925925925924,0)" xlink:href="#S"/><use transform="matrix(0.06172839506172839,0,0,0.06172839506172839,37.03703703703704,0)" xlink:href="#Y"/><use transform="matrix(0.06172839506172839,0,0,0.06172839506172839,43.20987654320988,0)" xlink:href="#R"/><use transform="matrix(0.06172839506172839,0,0,0.06172839506172839,55.55555555555556,0)" xlink:href="#Z"/></g><path fill="#3a414a" d="M205 0l-28-72H64L36 0H1l101-248h38L239 0h-34zm-38-99l-47-123c-12 45-31 82-46 123h93" id="aa"/><use transform="matrix(0.06172839506172839,0,0,0.06172839506172839,0,0)" xlink:href="#aa" id="c"/><path fill="#3a414a" d="M87 75C49 33 22-17 22-94c0-76 28-126 65-167h31c-38 41-64 92-64 168S80 34 118 75H87" id="ab"/><path fill="#3a414a" d="M33-261c38 41 65 92 65 168S71 34 33 75H2C39 34 66-17 66-93S39-220 2-261h31" id="ac"/><g id="d"><use transform="matrix(0.06172839506172839,0,0,0.06172839506172839,0,0)" xlink:href="#ab"/><use transform="matrix(0.06172839506172839,0,0,0.06172839506172839,7.345679012345679,0)" xlink:href="#Q"/><use transform="matrix(0.06172839506172839,0,0,0.06172839506172839,23.333333333333332,0)" xlink:href="#W"/><use transform="matrix(0.06172839506172839,0,0,0.06172839506172839,38.148148148148145,0)" xlink:href="#aa"/><use transform="matrix(0.06172839506172839,0,0,0.06172839506172839,52.96296296296296,0)" xlink:href="#ac"/></g><path fill="#3a414a" d="M15-91v-56l181-69v40L49-119l147 57v40" id="ad"/><g id="e"><use transform="matrix(0.04320987654320985,0,0,0.04320987654320985,0,0)" xlink:href="#ad"/><use transform="matrix(0.04320987654320985,0,0,0.04320987654320985,9.074074074074069,0)" xlink:href="#ad"/></g><path fill="#3a414a" d="M169-182c-1-43-94-46-97-3 18 66 151 10 154 114 3 95-165 93-204 36-6-8-10-19-12-30l50-8c3 46 112 56 116 5-17-69-150-10-154-114-4-87 153-88 188-35 5 8 8 18 10 28" id="ae"/><path fill="#3a414a" d="M135-194c53 0 70 44 70 98 0 56-19 98-73 100-31 1-45-17-59-34 3 33 2 69 2 105H25l-1-265h48c2 10 0 23 3 31 11-24 29-35 60-35zM114-30c33 0 39-31 40-66 0-38-9-64-40-64-56 0-55 130 0 130" id="af"/><path fill="#3a414a" d="M133-34C117-15 103 5 69 4 32 3 11-16 11-54c-1-60 55-63 116-61 1-26-3-47-28-47-18 1-26 9-28 27l-52-2c7-38 36-58 82-57s74 22 75 68l1 82c-1 14 12 18 25 15v27c-30 8-71 5-69-32zm-48 3c29 0 43-24 42-57-32 0-66-3-65 30 0 17 8 27 23 27" id="ag"/><path fill="#3a414a" d="M190-63c-7 42-38 67-86 67-59 0-84-38-90-98-12-110 154-137 174-36l-49 2c-2-19-15-32-35-32-30 0-35 28-38 64-6 74 65 87 74 30" id="ah"/><path fill="#3a414a" d="M25-224v-37h50v37H25zM25 0v-190h50V0H25" id="ai"/><path fill="#3a414a" d="M135-194c87-1 58 113 63 194h-50c-7-57 23-157-34-157-59 0-34 97-39 157H25l-1-190h47c2 12-1 28 3 38 12-26 28-41 61-42" id="aj"/><path fill="#3a414a" d="M195-6C206 82 75 100 31 46c-4-6-6-13-8-21l49-6c3 16 16 24 34 25 40 0 42-37 40-79-11 22-30 35-61 35-53 0-70-43-70-97 0-56 18-96 73-97 30 0 46 14 59 34l2-30h47zm-90-29c32 0 41-27 41-63 0-35-9-62-40-62-32 0-39 29-40 63 0 36 9 62 39 62" id="ak"/><g id="f"><use transform="matrix(0.04320987654320985,0,0,0.04320987654320985,0,0)" xlink:href="#ae"/><use transform="matrix(0.04320987654320985,0,0,0.04320987654320985,10.370370370370365,0)" xlink:href="#af"/><use transform="matrix(0.04320987654320985,0,0,0.04320987654320985,19.83333333333332,0)" xlink:href="#ag"/><use transform="matrix(0.04320987654320985,0,0,0.04320987654320985,28.475308641975293,0)" xlink:href="#ah"/><use transform="matrix(0.04320987654320985,0,0,0.04320987654320985,37.117283950617264,0)" xlink:href="#ai"/><use transform="matrix(0.04320987654320985,0,0,0.04320987654320985,41.43827160493825,0)" xlink:href="#aj"/><use transform="matrix(0.04320987654320985,0,0,0.04320987654320985,50.90123456790122,0)" xlink:href="#ak"/></g><path fill="#3a414a" d="M15-22v-40l146-57-146-57v-40l181 69v56" id="al"/><g id="g"><use transform="matrix(0.04320987654320985,0,0,0.04320987654320985,0,0)" xlink:href="#al"/><use transform="matrix(0.04320987654320985,0,0,0.04320987654320985,9.074074074074069,0)" xlink:href="#al"/></g><path fill="#3a414a" d="M33 0v-38h34V0H33" id="am"/><path fill="#3a414a" d="M96-169c-40 0-48 33-48 73s9 75 48 75c24 0 41-14 43-38l32 2c-6 37-31 61-74 61-59 0-76-41-82-99-10-93 101-131 147-64 4 7 5 14 7 22l-32 3c-4-21-16-35-41-35" id="an"/><path fill="#3a414a" d="M100-194c62-1 85 37 85 99 1 63-27 99-86 99S16-35 15-95c0-66 28-99 85-99zM99-20c44 1 53-31 53-75 0-43-8-75-51-75s-53 32-53 75 10 74 51 75" id="ao"/><path fill="#3a414a" d="M141-36C126-15 110 5 73 4 37 3 15-17 15-53c-1-64 63-63 125-63 3-35-9-54-41-54-24 1-41 7-42 31l-33-3c5-37 33-52 76-52 45 0 72 20 72 64v82c-1 20 7 32 28 27v20c-31 9-61-2-59-35zM48-53c0 20 12 33 32 33 41-3 63-29 60-74-43 2-92-5-92 41" id="ap"/><path fill="#3a414a" d="M114-163C36-179 61-72 57 0H25l-1-190h30c1 12-1 29 2 39 6-27 23-49 58-41v29" id="aq"/><g id="i"><use transform="matrix(0.055555555555555546,0,0,0.055555555555555546,0,0)" xlink:href="#am"/><use transform="matrix(0.055555555555555546,0,0,0.055555555555555546,5.5555555555555545,0)" xlink:href="#an"/><use transform="matrix(0.055555555555555546,0,0,0.055555555555555546,15.555555555555554,0)" xlink:href="#ao"/><use transform="matrix(0.055555555555555546,0,0,0.055555555555555546,26.666666666666664,0)" xlink:href="#V"/><use transform="matrix(0.055555555555555546,0,0,0.055555555555555546,37.77777777777777,0)" xlink:href="#Y"/><use transform="matrix(0.055555555555555546,0,0,0.055555555555555546,43.33333333333333,0)" xlink:href="#ap"/><use transform="matrix(0.055555555555555546,0,0,0.055555555555555546,54.444444444444436,0)" xlink:href="#T"/><use transform="matrix(0.055555555555555546,0,0,0.055555555555555546,58.83333333333332,0)" xlink:href="#V"/><use transform="matrix(0.055555555555555546,0,0,0.055555555555555546,69.94444444444443,0)" xlink:href="#R"/><use transform="matrix(0.055555555555555546,0,0,0.055555555555555546,81.05555555555554,0)" xlink:href="#aq"/></g><path fill="#3a414a" d="M115-194c55 1 70 41 70 98S169 2 115 4C84 4 66-9 55-30l1 105H24l-1-265h31l2 30c10-21 28-34 59-34zm-8 174c40 0 45-34 45-75s-6-73-45-74c-42 0-51 32-51 76 0 43 10 73 51 73" id="ar"/><path fill="#3a414a" d="M85-194c31 0 48 13 60 33l-1-100h32l1 261h-30c-2-10 0-23-3-31C134-8 116 4 85 4 32 4 16-35 15-94c0-66 23-100 70-100zm9 24c-40 0-46 34-46 75 0 40 6 74 45 74 42 0 51-32 51-76 0-42-9-74-50-73" id="as"/><path fill="#3a414a" d="M33-154v-36h34v36H33zM33 0v-36h34V0H33" id="at"/><g id="j"><use transform="matrix(0.055555555555555546,0,0,0.055555555555555546,0,0)" xlink:href="#ar"/><use transform="matrix(0.055555555555555546,0,0,0.055555555555555546,11.111111111111109,0)" xlink:href="#ap"/><use transform="matrix(0.055555555555555546,0,0,0.055555555555555546,22.222222222222218,0)" xlink:href="#as"/><use transform="matrix(0.055555555555555546,0,0,0.055555555555555546,33.33333333333333,0)" xlink:href="#as"/><use transform="matrix(0.055555555555555546,0,0,0.055555555555555546,44.444444444444436,0)" xlink:href="#T"/><use transform="matrix(0.055555555555555546,0,0,0.055555555555555546,48.83333333333332,0)" xlink:href="#V"/><use transform="matrix(0.055555555555555546,0,0,0.055555555555555546,59.944444444444436,0)" xlink:href="#U"/><use transform="matrix(0.055555555555555546,0,0,0.055555555555555546,71.05555555555554,0)" xlink:href="#at"/></g><path fill="#3a414a" d="M54-142c48-35 137-8 131 61C196 18 31 33 14-55l32-4c7 23 22 37 52 37 35-1 51-22 54-58 4-55-73-65-99-34H22l8-134h141v27H59" id="au"/><path fill="#3a414a" d="M252-156c43 0 55 33 55 80 0 46-13 78-56 78-42 0-55-33-55-78 0-48 12-80 56-80zM93 0H65l162-248h28zM13-171c-1-47 13-79 56-79s55 33 55 79-13 79-55 79c-43 0-56-33-56-79zM251-17c28 0 30-29 30-59 0-31-1-60-29-60-29 0-31 29-31 60 0 29 2 59 30 59zM69-112c27 0 28-30 29-59 0-31-1-60-29-60-29 0-30 30-30 60s2 59 30 59" id="av"/><g id="k"><use transform="matrix(0.055555555555555546,0,0,0.055555555555555546,0,0)" xlink:href="#au"/><use transform="matrix(0.055555555555555546,0,0,0.055555555555555546,11.111111111111109,0)" xlink:href="#av"/></g><path fill="#3a414a" d="M101-251c68 0 85 55 85 127S166 4 100 4C33 4 14-52 14-124c0-73 17-127 87-127zm-1 229c47 0 54-49 54-102s-4-102-53-102c-51 0-55 48-55 102 0 53 5 102 54 102" id="aw"/><use transform="matrix(0.055555555555555546,0,0,0.055555555555555546,0,0)" xlink:href="#aw" id="l"/><path fill="#3a414a" d="M136-208V0H84v-208H4v-40h212v40h-80" id="ax"/><path fill="#3a414a" d="M123 10C108 53 80 86 19 72V37c35 8 53-11 59-39L3-190h52l48 148c12-52 28-100 44-148h51" id="ay"/><path fill="#3a414a" d="M110-194c64 0 96 36 96 99 0 64-35 99-97 99-61 0-95-36-95-99 0-62 34-99 96-99zm-1 164c35 0 45-28 45-65 0-40-10-65-43-65-34 0-45 26-45 65 0 36 10 65 43 65" id="az"/><path fill="#3a414a" d="M135-150c-39-12-60 13-60 57V0H25l-1-190h47c2 13-1 29 3 40 6-28 27-53 61-41v41" id="aA"/><path fill="#3a414a" d="M114-157C55-157 80-60 75 0H25v-261h50l-1 109c12-26 28-41 61-42 86-1 58 113 63 194h-50c-7-57 23-157-34-157" id="aB"/><g id="m"><use transform="matrix(0.04320987654320985,0,0,0.04320987654320985,0,0)" xlink:href="#ax"/><use transform="matrix(0.04320987654320985,0,0,0.04320987654320985,8.296296296296292,0)" xlink:href="#ay"/><use transform="matrix(0.04320987654320985,0,0,0.04320987654320985,16.938271604938265,0)" xlink:href="#af"/><use transform="matrix(0.04320987654320985,0,0,0.04320987654320985,26.401234567901227,0)" xlink:href="#az"/><use transform="matrix(0.04320987654320985,0,0,0.04320987654320985,35.86419753086418,0)" xlink:href="#ak"/><use transform="matrix(0.04320987654320985,0,0,0.04320987654320985,45.32716049382714,0)" xlink:href="#aA"/><use transform="matrix(0.04320987654320985,0,0,0.04320987654320985,51.376543209876516,0)" xlink:href="#ag"/><use transform="matrix(0.04320987654320985,0,0,0.04320987654320985,60.01851851851848,0)" xlink:href="#af"/><use transform="matrix(0.04320987654320985,0,0,0.04320987654320985,69.48148148148145,0)" xlink:href="#aB"/><use transform="matrix(0.04320987654320985,0,0,0.04320987654320985,78.94444444444441,0)" xlink:href="#ay"/></g><path fill="#3a414a" d="M16-82v-28h88v28H16" id="aC"/><path fill="#3a414a" d="M106-169C34-169 62-67 57 0H25v-261h32l-1 103c12-21 28-36 61-36 89 0 53 116 60 194h-32v-121c2-32-8-49-39-48" id="aD"/><g id="n"><use transform="matrix(0.055555555555555546,0,0,0.055555555555555546,0,0)" xlink:href="#am"/><use transform="matrix(0.055555555555555546,0,0,0.055555555555555546,5.5555555555555545,0)" xlink:href="#S"/><use transform="matrix(0.055555555555555546,0,0,0.055555555555555546,15.555555555555554,0)" xlink:href="#R"/><use transform="matrix(0.055555555555555546,0,0,0.055555555555555546,26.666666666666664,0)" xlink:href="#an"/><use transform="matrix(0.055555555555555546,0,0,0.055555555555555546,36.666666666666664,0)" xlink:href="#Y"/><use transform="matrix(0.055555555555555546,0,0,0.055555555555555546,42.22222222222222,0)" xlink:href="#T"/><use transform="matrix(0.055555555555555546,0,0,0.055555555555555546,46.61111111111111,0)" xlink:href="#ao"/><use transform="matrix(0.055555555555555546,0,0,0.055555555555555546,57.722222222222214,0)" xlink:href="#V"/><use transform="matrix(0.055555555555555546,0,0,0.055555555555555546,68.83333333333333,0)" xlink:href="#aC"/><use transform="matrix(0.055555555555555546,0,0,0.055555555555555546,75.44444444444444,0)" xlink:href="#aD"/><use transform="matrix(0.055555555555555546,0,0,0.055555555555555546,86.55555555555556,0)" xlink:href="#R"/><use transform="matrix(0.055555555555555546,0,0,0.055555555555555546,97.66666666666667,0)" xlink:href="#ap"/><use transform="matrix(0.055555555555555546,0,0,0.055555555555555546,108.77777777777779,0)" xlink:href="#as"/><use transform="matrix(0.055555555555555546,0,0,0.055555555555555546,119.88888888888889,0)" xlink:href="#R"/><use transform="matrix(0.055555555555555546,0,0,0.055555555555555546,131,0)" xlink:href="#aq"/></g><path fill="#3a414a" d="M101-234c-31-9-42 10-38 44h38v23H63V0H32v-167H5v-23h27c-7-52 17-82 69-68v24" id="aE"/><path fill="#3a414a" d="M9 0v-24l116-142H16v-24h144v24L44-24h123V0H9" id="aF"/><g id="o"><use transform="matrix(0.055555555555555546,0,0,0.055555555555555546,0,0)" xlink:href="#aE"/><use transform="matrix(0.055555555555555546,0,0,0.055555555555555546,5.5555555555555545,0)" xlink:href="#ao"/><use transform="matrix(0.055555555555555546,0,0,0.055555555555555546,16.666666666666664,0)" xlink:href="#V"/><use transform="matrix(0.055555555555555546,0,0,0.055555555555555546,27.77777777777777,0)" xlink:href="#Y"/><use transform="matrix(0.055555555555555546,0,0,0.055555555555555546,33.33333333333333,0)" xlink:href="#aC"/><use transform="matrix(0.055555555555555546,0,0,0.055555555555555546,39.944444444444436,0)" xlink:href="#S"/><use transform="matrix(0.055555555555555546,0,0,0.055555555555555546,49.944444444444436,0)" xlink:href="#T"/><use transform="matrix(0.055555555555555546,0,0,0.055555555555555546,54.33333333333332,0)" xlink:href="#aF"/><use transform="matrix(0.055555555555555546,0,0,0.055555555555555546,64.33333333333331,0)" xlink:href="#R"/><use transform="matrix(0.055555555555555546,0,0,0.055555555555555546,75.44444444444443,0)" xlink:href="#at"/></g><path fill="#3a414a" d="M27 0v-27h64v-190l-56 39v-29l58-41h29v221h61V0H27" id="aG"/><path fill="#3a414a" d="M110-160c48 1 74 30 74 79 0 53-28 85-80 85-65 0-83-55-86-122-5-90 50-162 133-122 14 7 22 21 27 39l-31 6c-5-40-67-38-82-6-9 19-15 44-15 74 11-20 30-34 60-33zm-7 138c34 0 49-23 49-58s-16-56-50-56c-29 0-50 16-49 49 1 36 15 65 50 65" id="aH"/><g id="p"><use transform="matrix(0.055555555555555546,0,0,0.055555555555555546,0,0)" xlink:href="#aG"/><use transform="matrix(0.055555555555555546,0,0,0.055555555555555546,11.111111111111109,0)" xlink:href="#am"/><use transform="matrix(0.055555555555555546,0,0,0.055555555555555546,16.666666666666664,0)" xlink:href="#aH"/><use transform="matrix(0.055555555555555546,0,0,0.055555555555555546,27.77777777777777,0)" xlink:href="#aq"/><use transform="matrix(0.055555555555555546,0,0,0.055555555555555546,34.38888888888888,0)" xlink:href="#R"/><use transform="matrix(0.055555555555555546,0,0,0.055555555555555546,45.499999999999986,0)" xlink:href="#Z"/></g><path fill="#3a414a" d="M160-131c35 5 61 23 61 61C221 17 115-2 30 0v-248c76 3 177-17 177 60 0 33-19 50-47 57zm-97-11c50-1 110 9 110-42 0-47-63-36-110-37v79zm0 115c55-2 124 14 124-45 0-56-70-42-124-44v89" id="aI"/><use transform="matrix(0.06172839506172839,0,0,0.06172839506172839,0,0)" xlink:href="#aI" id="q"/><g id="r"><use transform="matrix(0.06172839506172839,0,0,0.06172839506172839,0,0)" xlink:href="#ab"/><use transform="matrix(0.06172839506172839,0,0,0.06172839506172839,7.345679012345679,0)" xlink:href="#Q"/><use transform="matrix(0.06172839506172839,0,0,0.06172839506172839,23.333333333333332,0)" xlink:href="#W"/><use transform="matrix(0.06172839506172839,0,0,0.06172839506172839,38.148148148148145,0)" xlink:href="#aI"/><use transform="matrix(0.06172839506172839,0,0,0.06172839506172839,52.96296296296296,0)" xlink:href="#ac"/></g><path fill="#3a414a" d="M175 0L67-191c6 58 2 128 3 191H24v-248h59L193-55c-6-58-2-129-3-193h46V0h-61" id="aJ"/><path fill="#3a414a" d="M128 0H69L1-190h53L99-40l48-150h52" id="aK"/><path fill="#3a414a" d="M115-3C79 11 28 4 28-45v-112H4v-33h27l15-45h31v45h36v33H77v99c-1 23 16 31 38 25v30" id="aL"/><g id="s"><use transform="matrix(0.04320987654320985,0,0,0.04320987654320985,0,0)" xlink:href="#aJ"/><use transform="matrix(0.04320987654320985,0,0,0.04320987654320985,11.191358024691352,0)" xlink:href="#ag"/><use transform="matrix(0.04320987654320985,0,0,0.04320987654320985,19.83333333333332,0)" xlink:href="#aK"/><use transform="matrix(0.04320987654320985,0,0,0.04320987654320985,28.475308641975293,0)" xlink:href="#ai"/><use transform="matrix(0.04320987654320985,0,0,0.04320987654320985,32.796296296296276,0)" xlink:href="#ak"/><use transform="matrix(0.04320987654320985,0,0,0.04320987654320985,42.25925925925924,0)" xlink:href="#ag"/><use transform="matrix(0.04320987654320985,0,0,0.04320987654320985,50.90123456790122,0)" xlink:href="#aL"/><use transform="matrix(0.04320987654320985,0,0,0.04320987654320985,56.04320987654319,0)" xlink:href="#ai"/><use transform="matrix(0.04320987654320985,0,0,0.04320987654320985,60.364197530864175,0)" xlink:href="#az"/><use transform="matrix(0.04320987654320985,0,0,0.04320987654320985,69.82716049382714,0)" xlink:href="#aj"/></g><path fill="#3a414a" d="M206 0h-36l-40-164L89 0H53L-1-190h32L70-26l43-164h34l41 164 42-164h31" id="aM"/><path fill="#3a414a" d="M68-38c1 34 0 65-14 84H32c9-13 17-26 17-46H33v-38h35" id="aN"/><g id="t"><use transform="matrix(0.055555555555555546,0,0,0.055555555555555546,0,0)" xlink:href="#Q"/><use transform="matrix(0.055555555555555546,0,0,0.055555555555555546,14.388888888888886,0)" xlink:href="#aq"/><use transform="matrix(0.055555555555555546,0,0,0.055555555555555546,20.999999999999996,0)" xlink:href="#ap"/><use transform="matrix(0.055555555555555546,0,0,0.055555555555555546,32.11111111111111,0)" xlink:href="#aM"/><use transform="matrix(0.055555555555555546,0,0,0.055555555555555546,46.49999999999999,0)" xlink:href="#R"/><use transform="matrix(0.055555555555555546,0,0,0.055555555555555546,57.6111111111111,0)" xlink:href="#aq"/><use transform="matrix(0.055555555555555546,0,0,0.055555555555555546,64.22222222222221,0)" xlink:href="#ab"/><use transform="matrix(0.055555555555555546,0,0,0.055555555555555546,70.83333333333333,0)" xlink:href="#am"/><use transform="matrix(0.055555555555555546,0,0,0.055555555555555546,76.38888888888889,0)" xlink:href="#am"/><use transform="matrix(0.055555555555555546,0,0,0.055555555555555546,81.94444444444444,0)" xlink:href="#am"/><use transform="matrix(0.055555555555555546,0,0,0.055555555555555546,87.5,0)" xlink:href="#aN"/></g><path fill="#3a414a" d="M30 0v-248h187v28H63v79h144v27H63v87h162V0H30" id="aO"/><path fill="#3a414a" d="M33 0v-248h34V0H33" id="aP"/><g id="u"><use transform="matrix(0.055555555555555546,0,0,0.055555555555555546,0,0)" xlink:href="#aO"/><use transform="matrix(0.055555555555555546,0,0,0.055555555555555546,13.33333333333333,0)" xlink:href="#as"/><use transform="matrix(0.055555555555555546,0,0,0.055555555555555546,24.44444444444444,0)" xlink:href="#U"/><use transform="matrix(0.055555555555555546,0,0,0.055555555555555546,35.55555555555555,0)" xlink:href="#R"/><use transform="matrix(0.055555555555555546,0,0,0.055555555555555546,46.66666666666666,0)" xlink:href="#aP"/><use transform="matrix(0.055555555555555546,0,0,0.055555555555555546,52.222222222222214,0)" xlink:href="#V"/><use transform="matrix(0.055555555555555546,0,0,0.055555555555555546,63.33333333333332,0)" xlink:href="#S"/><use transform="matrix(0.055555555555555546,0,0,0.055555555555555546,73.33333333333331,0)" xlink:href="#R"/><use transform="matrix(0.055555555555555546,0,0,0.055555555555555546,84.44444444444443,0)" xlink:href="#Y"/><use transform="matrix(0.055555555555555546,0,0,0.055555555555555546,89.99999999999999,0)" xlink:href="#S"/><use transform="matrix(0.055555555555555546,0,0,0.055555555555555546,99.99999999999999,0)" xlink:href="#am"/><use transform="matrix(0.055555555555555546,0,0,0.055555555555555546,105.55555555555554,0)" xlink:href="#aF"/><use transform="matrix(0.055555555555555546,0,0,0.055555555555555546,115.55555555555553,0)" xlink:href="#R"/><use transform="matrix(0.055555555555555546,0,0,0.055555555555555546,126.66666666666667,0)" xlink:href="#aq"/><use transform="matrix(0.055555555555555546,0,0,0.055555555555555546,133.27777777777777,0)" xlink:href="#ao"/><use transform="matrix(0.055555555555555546,0,0,0.055555555555555546,144.38888888888889,0)" xlink:href="#ac"/></g><path fill="#3a414a" d="M127-220V0H93v-220H8v-28h204v28h-85" id="aQ"/><path fill="#3a414a" d="M141 0L90-78 38 0H4l68-98-65-92h35l48 74 47-74h35l-64 92 68 98h-35" id="aR"/><g id="v"><use transform="matrix(0.055555555555555546,0,0,0.055555555555555546,0,0)" xlink:href="#aQ"/><use transform="matrix(0.055555555555555546,0,0,0.055555555555555546,9.944444444444443,0)" xlink:href="#R"/><use transform="matrix(0.055555555555555546,0,0,0.055555555555555546,21.05555555555555,0)" xlink:href="#aR"/><use transform="matrix(0.055555555555555546,0,0,0.055555555555555546,31.05555555555555,0)" xlink:href="#Y"/><use transform="matrix(0.055555555555555546,0,0,0.055555555555555546,36.61111111111111,0)" xlink:href="#ab"/><use transform="matrix(0.055555555555555546,0,0,0.055555555555555546,43.222222222222214,0)" xlink:href="#am"/><use transform="matrix(0.055555555555555546,0,0,0.055555555555555546,48.77777777777777,0)" xlink:href="#am"/><use transform="matrix(0.055555555555555546,0,0,0.055555555555555546,54.33333333333333,0)" xlink:href="#am"/><use transform="matrix(0.055555555555555546,0,0,0.055555555555555546,59.88888888888889,0)" xlink:href="#aN"/></g><path fill="#3a414a" d="M24 0v-261h32V0H24" id="aS"/><g id="w"><use transform="matrix(0.055555555555555546,0,0,0.055555555555555546,0,0)" xlink:href="#S"/><use transform="matrix(0.055555555555555546,0,0,0.055555555555555546,9.999999999999998,0)" xlink:href="#Y"/><use transform="matrix(0.055555555555555546,0,0,0.055555555555555546,15.555555555555554,0)" xlink:href="#X"/><use transform="matrix(0.055555555555555546,0,0,0.055555555555555546,25.55555555555555,0)" xlink:href="#aS"/><use transform="matrix(0.055555555555555546,0,0,0.055555555555555546,29.94444444444444,0)" xlink:href="#R"/><use transform="matrix(0.055555555555555546,0,0,0.055555555555555546,41.05555555555555,0)" xlink:href="#at"/></g><g id="x"><use transform="matrix(0.055555555555555546,0,0,0.055555555555555546,0,0)" xlink:href="#aQ"/><use transform="matrix(0.055555555555555546,0,0,0.055555555555555546,9.944444444444443,0)" xlink:href="#R"/><use transform="matrix(0.055555555555555546,0,0,0.055555555555555546,21.05555555555555,0)" xlink:href="#aR"/><use transform="matrix(0.055555555555555546,0,0,0.055555555555555546,31.05555555555555,0)" xlink:href="#Y"/><use transform="matrix(0.055555555555555546,0,0,0.055555555555555546,36.61111111111111,0)" xlink:href="#W"/><use transform="matrix(0.055555555555555546,0,0,0.055555555555555546,49.944444444444436,0)" xlink:href="#Y"/><use transform="matrix(0.055555555555555546,0,0,0.055555555555555546,55.49999999999999,0)" xlink:href="#X"/><use transform="matrix(0.055555555555555546,0,0,0.055555555555555546,65.49999999999999,0)" xlink:href="#aS"/><use transform="matrix(0.055555555555555546,0,0,0.055555555555555546,69.88888888888887,0)" xlink:href="#R"/><use transform="matrix(0.055555555555555546,0,0,0.055555555555555546,80.99999999999999,0)" xlink:href="#ab"/><use transform="matrix(0.055555555555555546,0,0,0.055555555555555546,87.6111111111111,0)" xlink:href="#aE"/><use transform="matrix(0.055555555555555546,0,0,0.055555555555555546,93.16666666666666,0)" xlink:href="#ao"/><use transform="matrix(0.055555555555555546,0,0,0.055555555555555546,104.27777777777777,0)" xlink:href="#V"/><use transform="matrix(0.055555555555555546,0,0,0.055555555555555546,115.3888888888889,0)" xlink:href="#Y"/><use transform="matrix(0.055555555555555546,0,0,0.055555555555555546,120.94444444444444,0)" xlink:href="#W"/><use transform="matrix(0.055555555555555546,0,0,0.055555555555555546,134.27777777777777,0)" xlink:href="#T"/><use transform="matrix(0.055555555555555546,0,0,0.055555555555555546,138.66666666666666,0)" xlink:href="#aF"/><use transform="matrix(0.055555555555555546,0,0,0.055555555555555546,148.66666666666666,0)" xlink:href="#R"/><use transform="matrix(0.055555555555555546,0,0,0.055555555555555546,159.77777777777777,0)" xlink:href="#at"/></g><path fill="#3a414a" d="M101-251c82-7 93 87 43 132L82-64C71-53 59-42 53-27h129V0H18c2-99 128-94 128-182 0-28-16-43-45-43s-46 15-49 41l-32-3c6-41 34-60 81-64" id="aT"/><g id="y"><use transform="matrix(0.055555555555555546,0,0,0.055555555555555546,0,0)" xlink:href="#aG"/><use transform="matrix(0.055555555555555546,0,0,0.055555555555555546,11.111111111111109,0)" xlink:href="#aT"/><use transform="matrix(0.055555555555555546,0,0,0.055555555555555546,22.222222222222218,0)" xlink:href="#am"/><use transform="matrix(0.055555555555555546,0,0,0.055555555555555546,27.77777777777777,0)" xlink:href="#S"/><use transform="matrix(0.055555555555555546,0,0,0.055555555555555546,37.77777777777777,0)" xlink:href="#ar"/><use transform="matrix(0.055555555555555546,0,0,0.055555555555555546,48.88888888888888,0)" xlink:href="#ac"/></g><path fill="#3a414a" d="M212-179c-10-28-35-45-73-45-59 0-87 40-87 99 0 60 29 101 89 101 43 0 62-24 78-52l27 14C228-24 195 4 139 4 59 4 22-46 18-125c-6-104 99-153 187-111 19 9 31 26 39 46" id="aU"/><use transform="matrix(0.06172839506172839,0,0,0.06172839506172839,0,0)" xlink:href="#aU" id="z"/><g id="A"><use transform="matrix(0.06172839506172839,0,0,0.06172839506172839,0,0)" xlink:href="#ab"/><use transform="matrix(0.06172839506172839,0,0,0.06172839506172839,7.345679012345679,0)" xlink:href="#Q"/><use transform="matrix(0.06172839506172839,0,0,0.06172839506172839,23.333333333333332,0)" xlink:href="#W"/><use transform="matrix(0.06172839506172839,0,0,0.06172839506172839,38.148148148148145,0)" xlink:href="#aU"/><use transform="matrix(0.06172839506172839,0,0,0.06172839506172839,54.1358024691358,0)" xlink:href="#ac"/></g><path fill="#3a414a" d="M155-56V0h-30v-56H8v-25l114-167h33v167h35v25h-35zm-30-156c-27 46-58 90-88 131h88v-131" id="aV"/><g id="B"><use transform="matrix(0.055555555555555546,0,0,0.055555555555555546,0,0)" xlink:href="#aT"/><use transform="matrix(0.055555555555555546,0,0,0.055555555555555546,11.111111111111109,0)" xlink:href="#aV"/><use transform="matrix(0.055555555555555546,0,0,0.055555555555555546,22.222222222222218,0)" xlink:href="#ar"/><use transform="matrix(0.055555555555555546,0,0,0.055555555555555546,33.33333333333333,0)" xlink:href="#aR"/></g><path fill="#3a414a" d="M143 4C61 4 22-44 18-125c-5-107 100-154 193-111 17 8 29 25 37 43l-32 9c-13-25-37-40-76-40-61 0-88 39-88 99 0 61 29 100 91 101 35 0 62-11 79-27v-45h-74v-28h105v86C228-13 192 4 143 4" id="aW"/><g id="C"><use transform="matrix(0.06172839506172839,0,0,0.06172839506172839,0,0)" xlink:href="#aW"/><use transform="matrix(0.06172839506172839,0,0,0.06172839506172839,17.28395061728395,0)" xlink:href="#aq"/><use transform="matrix(0.06172839506172839,0,0,0.06172839506172839,24.629629629629626,0)" xlink:href="#ap"/><use transform="matrix(0.06172839506172839,0,0,0.06172839506172839,36.9753086419753,0)" xlink:href="#an"/><use transform="matrix(0.06172839506172839,0,0,0.06172839506172839,48.08641975308642,0)" xlink:href="#R"/></g><g id="D"><use transform="matrix(0.06172839506172839,0,0,0.06172839506172839,0,0)" xlink:href="#aU"/><use transform="matrix(0.06172839506172839,0,0,0.06172839506172839,15.987654320987653,0)" xlink:href="#ao"/><use transform="matrix(0.06172839506172839,0,0,0.06172839506172839,28.333333333333332,0)" xlink:href="#aS"/><use transform="matrix(0.06172839506172839,0,0,0.06172839506172839,33.20987654320987,0)" xlink:href="#aS"/><use transform="matrix(0.06172839506172839,0,0,0.06172839506172839,38.08641975308642,0)" xlink:href="#R"/><use transform="matrix(0.06172839506172839,0,0,0.06172839506172839,50.432098765432094,0)" xlink:href="#an"/><use transform="matrix(0.06172839506172839,0,0,0.06172839506172839,61.5432098765432,0)" xlink:href="#Y"/><use transform="matrix(0.06172839506172839,0,0,0.06172839506172839,67.71604938271604,0)" xlink:href="#T"/><use transform="matrix(0.06172839506172839,0,0,0.06172839506172839,72.59259259259258,0)" xlink:href="#ao"/><use transform="matrix(0.06172839506172839,0,0,0.06172839506172839,84.93827160493827,0)" xlink:href="#V"/></g><g id="E"><use transform="matrix(0.06172839506172839,0,0,0.06172839506172839,0,0)" xlink:href="#W"/><use transform="matrix(0.06172839506172839,0,0,0.06172839506172839,14.814814814814813,0)" xlink:href="#Y"/><use transform="matrix(0.06172839506172839,0,0,0.06172839506172839,20.98765432098765,0)" xlink:href="#ap"/><use transform="matrix(0.06172839506172839,0,0,0.06172839506172839,33.33333333333333,0)" xlink:href="#U"/><use transform="matrix(0.06172839506172839,0,0,0.06172839506172839,45.679012345679006,0)" xlink:href="#R"/></g><path fill="#3a414a" d="M67-125c0 54 23 88 75 88 28 0 53-7 68-21v-34h-60v-39h108v91C232-14 192 4 140 4 58 4 20-42 15-125 8-236 126-280 215-234c19 10 29 26 37 47l-47 15c-11-23-29-39-63-39-53 1-75 33-75 86" id="aX"/><path fill="#3a414a" d="M85 4C-2 5 27-109 22-190h50c7 57-23 150 33 157 60-5 35-97 40-157h50l1 190h-47c-2-12 1-28-3-38-12 25-28 42-61 42" id="aY"/><path fill="#3a414a" d="M35-132v-50h50v50H35zM35 0v-49h50V0H35" id="aZ"/><g id="F"><use transform="matrix(0.055555555555555546,0,0,0.055555555555555546,0,0)" xlink:href="#aX"/><use transform="matrix(0.055555555555555546,0,0,0.055555555555555546,15.555555555555554,0)" xlink:href="#aA"/><use transform="matrix(0.055555555555555546,0,0,0.055555555555555546,23.33333333333333,0)" xlink:href="#az"/><use transform="matrix(0.055555555555555546,0,0,0.055555555555555546,35.49999999999999,0)" xlink:href="#aY"/><use transform="matrix(0.055555555555555546,0,0,0.055555555555555546,47.66666666666666,0)" xlink:href="#af"/><use transform="matrix(0.055555555555555546,0,0,0.055555555555555546,59.83333333333332,0)" xlink:href="#aZ"/></g><g id="G"><use transform="matrix(0.055555555555555546,0,0,0.055555555555555546,0,0)" xlink:href="#ax"/><use transform="matrix(0.055555555555555546,0,0,0.055555555555555546,10.666666666666664,0)" xlink:href="#ay"/><use transform="matrix(0.055555555555555546,0,0,0.055555555555555546,21.77777777777777,0)" xlink:href="#af"/><use transform="matrix(0.055555555555555546,0,0,0.055555555555555546,33.944444444444436,0)" xlink:href="#az"/><use transform="matrix(0.055555555555555546,0,0,0.055555555555555546,46.1111111111111,0)" xlink:href="#ak"/><use transform="matrix(0.055555555555555546,0,0,0.055555555555555546,58.277777777777764,0)" xlink:href="#aA"/><use transform="matrix(0.055555555555555546,0,0,0.055555555555555546,66.05555555555554,0)" xlink:href="#ag"/><use transform="matrix(0.055555555555555546,0,0,0.055555555555555546,77.16666666666666,0)" xlink:href="#af"/><use transform="matrix(0.055555555555555546,0,0,0.055555555555555546,89.33333333333331,0)" xlink:href="#aB"/><use transform="matrix(0.055555555555555546,0,0,0.055555555555555546,101.49999999999997,0)" xlink:href="#ay"/></g><path fill="#3a414a" d="M88-194c31-1 46 15 58 34l-1-101h50l1 261h-48c-2-10 0-23-3-31C134-8 116 4 84 4 32 4 16-41 15-95c0-56 19-97 73-99zm17 164c33 0 40-30 41-66 1-37-9-64-41-64s-38 30-39 65c0 43 13 65 39 65" id="ba"/><path fill="#3a414a" d="M25 0v-261h50V0H25" id="bb"/><path fill="#3a414a" d="M185-48c-13 30-37 53-82 52C43 2 14-33 14-96s30-98 90-98c62 0 83 45 84 108H66c0 31 8 55 39 56 18 0 30-7 34-22zm-45-69c5-46-57-63-70-21-2 6-4 13-4 21h74" id="bc"/><g id="H"><use transform="matrix(0.055555555555555546,0,0,0.055555555555555546,0,0)" xlink:href="#ae"/><use transform="matrix(0.055555555555555546,0,0,0.055555555555555546,13.33333333333333,0)" xlink:href="#aL"/><use transform="matrix(0.055555555555555546,0,0,0.055555555555555546,19.94444444444444,0)" xlink:href="#ag"/><use transform="matrix(0.055555555555555546,0,0,0.055555555555555546,31.05555555555555,0)" xlink:href="#aj"/><use transform="matrix(0.055555555555555546,0,0,0.055555555555555546,43.222222222222214,0)" xlink:href="#ba"/><use transform="matrix(0.055555555555555546,0,0,0.055555555555555546,55.38888888888888,0)" xlink:href="#ag"/><use transform="matrix(0.055555555555555546,0,0,0.055555555555555546,66.49999999999999,0)" xlink:href="#bb"/><use transform="matrix(0.055555555555555546,0,0,0.055555555555555546,72.05555555555554,0)" xlink:href="#az"/><use transform="matrix(0.055555555555555546,0,0,0.055555555555555546,84.2222222222222,0)" xlink:href="#aj"/><use transform="matrix(0.055555555555555546,0,0,0.055555555555555546,96.38888888888886,0)" xlink:href="#bc"/><use transform="matrix(0.055555555555555546,0,0,0.055555555555555546,107.49999999999997,0)" xlink:href="#aZ"/></g><g id="I"><use transform="matrix(0.055555555555555546,0,0,0.055555555555555546,0,0)" xlink:href="#aJ"/><use transform="matrix(0.055555555555555546,0,0,0.055555555555555546,14.388888888888886,0)" xlink:href="#ag"/><use transform="matrix(0.055555555555555546,0,0,0.055555555555555546,25.499999999999993,0)" xlink:href="#aK"/><use transform="matrix(0.055555555555555546,0,0,0.055555555555555546,36.6111111111111,0)" xlink:href="#ai"/><use transform="matrix(0.055555555555555546,0,0,0.055555555555555546,42.16666666666666,0)" xlink:href="#ak"/><use transform="matrix(0.055555555555555546,0,0,0.055555555555555546,54.33333333333332,0)" xlink:href="#ag"/><use transform="matrix(0.055555555555555546,0,0,0.055555555555555546,65.44444444444443,0)" xlink:href="#aL"/><use transform="matrix(0.055555555555555546,0,0,0.055555555555555546,72.05555555555554,0)" xlink:href="#ai"/><use transform="matrix(0.055555555555555546,0,0,0.055555555555555546,77.6111111111111,0)" xlink:href="#az"/><use transform="matrix(0.055555555555555546,0,0,0.055555555555555546,89.77777777777777,0)" xlink:href="#aj"/></g><g id="J"><use transform="matrix(0.055555555555555546,0,0,0.055555555555555546,0,0)" xlink:href="#ae"/><use transform="matrix(0.055555555555555546,0,0,0.055555555555555546,13.33333333333333,0)" xlink:href="#af"/><use transform="matrix(0.055555555555555546,0,0,0.055555555555555546,25.499999999999993,0)" xlink:href="#ag"/><use transform="matrix(0.055555555555555546,0,0,0.055555555555555546,36.6111111111111,0)" xlink:href="#ah"/><use transform="matrix(0.055555555555555546,0,0,0.055555555555555546,47.72222222222221,0)" xlink:href="#ai"/><use transform="matrix(0.055555555555555546,0,0,0.055555555555555546,53.277777777777764,0)" xlink:href="#aj"/><use transform="matrix(0.055555555555555546,0,0,0.055555555555555546,65.44444444444443,0)" xlink:href="#ak"/></g><use transform="matrix(0.06172839506172839,0,0,0.06172839506172839,0,0)" xlink:href="#Q" id="K"/><g id="L"><use transform="matrix(0.06172839506172839,0,0,0.06172839506172839,0,0)" xlink:href="#ab"/><use transform="matrix(0.06172839506172839,0,0,0.06172839506172839,7.345679012345679,0)" xlink:href="#Q"/><use transform="matrix(0.06172839506172839,0,0,0.06172839506172839,23.333333333333332,0)" xlink:href="#W"/><use transform="matrix(0.06172839506172839,0,0,0.06172839506172839,38.148148148148145,0)" xlink:href="#Q"/><use transform="matrix(0.06172839506172839,0,0,0.06172839506172839,54.1358024691358,0)" xlink:href="#ac"/></g><path fill="#3a414a" d="M30-248c87 1 191-15 191 75 0 78-77 80-158 76V0H30v-248zm33 125c57 0 124 11 124-50 0-59-68-47-124-48v98" id="bd"/><g id="M"><use transform="matrix(0.055555555555555546,0,0,0.055555555555555546,0,0)" xlink:href="#bd"/><use transform="matrix(0.055555555555555546,0,0,0.055555555555555546,13.33333333333333,0)" xlink:href="#ap"/><use transform="matrix(0.055555555555555546,0,0,0.055555555555555546,24.44444444444444,0)" xlink:href="#as"/><use transform="matrix(0.055555555555555546,0,0,0.055555555555555546,35.55555555555555,0)" xlink:href="#as"/><use transform="matrix(0.055555555555555546,0,0,0.055555555555555546,46.66666666666666,0)" xlink:href="#T"/><use transform="matrix(0.055555555555555546,0,0,0.055555555555555546,51.05555555555554,0)" xlink:href="#V"/><use transform="matrix(0.055555555555555546,0,0,0.055555555555555546,62.16666666666666,0)" xlink:href="#U"/><use transform="matrix(0.055555555555555546,0,0,0.055555555555555546,73.27777777777776,0)" xlink:href="#ab"/><use transform="matrix(0.055555555555555546,0,0,0.055555555555555546,79.88888888888887,0)" xlink:href="#am"/><use transform="matrix(0.055555555555555546,0,0,0.055555555555555546,85.44444444444443,0)" xlink:href="#am"/><use transform="matrix(0.055555555555555546,0,0,0.055555555555555546,90.99999999999999,0)" xlink:href="#am"/><use transform="matrix(0.055555555555555546,0,0,0.055555555555555546,96.55555555555554,0)" xlink:href="#aN"/></g><g id="N"><use transform="matrix(0.055555555555555546,0,0,0.055555555555555546,0,0)" xlink:href="#aO"/><use transform="matrix(0.055555555555555546,0,0,0.055555555555555546,13.33333333333333,0)" xlink:href="#as"/><use transform="matrix(0.055555555555555546,0,0,0.055555555555555546,24.44444444444444,0)" xlink:href="#U"/><use transform="matrix(0.055555555555555546,0,0,0.055555555555555546,35.55555555555555,0)" xlink:href="#R"/><use transform="matrix(0.055555555555555546,0,0,0.055555555555555546,46.66666666666666,0)" xlink:href="#aP"/><use transform="matrix(0.055555555555555546,0,0,0.055555555555555546,52.222222222222214,0)" xlink:href="#V"/><use transform="matrix(0.055555555555555546,0,0,0.055555555555555546,63.33333333333332,0)" xlink:href="#S"/><use transform="matrix(0.055555555555555546,0,0,0.055555555555555546,73.33333333333331,0)" xlink:href="#R"/><use transform="matrix(0.055555555555555546,0,0,0.055555555555555546,84.44444444444443,0)" xlink:href="#Y"/><use transform="matrix(0.055555555555555546,0,0,0.055555555555555546,89.99999999999999,0)" xlink:href="#S"/><use transform="matrix(0.055555555555555546,0,0,0.055555555555555546,99.99999999999999,0)" xlink:href="#am"/><use transform="matrix(0.055555555555555546,0,0,0.055555555555555546,105.55555555555554,0)" xlink:href="#ap"/><use transform="matrix(0.055555555555555546,0,0,0.055555555555555546,116.66666666666664,0)" xlink:href="#aS"/><use transform="matrix(0.055555555555555546,0,0,0.055555555555555546,121.05555555555553,0)" xlink:href="#aS"/><use transform="matrix(0.055555555555555546,0,0,0.055555555555555546,125.44444444444443,0)" xlink:href="#ab"/><use transform="matrix(0.055555555555555546,0,0,0.055555555555555546,132.05555555555554,0)" xlink:href="#aG"/><use transform="matrix(0.055555555555555546,0,0,0.055555555555555546,143.16666666666666,0)" xlink:href="#aH"/><use transform="matrix(0.055555555555555546,0,0,0.055555555555555546,154.27777777777777,0)" xlink:href="#aN"/></g><g id="O"><use transform="matrix(0.055555555555555546,0,0,0.055555555555555546,0,0)" xlink:href="#aw"/><use transform="matrix(0.055555555555555546,0,0,0.055555555555555546,11.111111111111109,0)" xlink:href="#ac"/></g><g id="P"><use transform="matrix(0.055555555555555546,0,0,0.055555555555555546,0,0)" xlink:href="#aG"/><use transform="matrix(0.055555555555555546,0,0,0.055555555555555546,11.111111111111109,0)" xlink:href="#aH"/><use transform="matrix(0.055555555555555546,0,0,0.055555555555555546,22.222222222222218,0)" xlink:href="#am"/><use transform="matrix(0.055555555555555546,0,0,0.055555555555555546,27.77777777777777,0)" xlink:href="#S"/><use transform="matrix(0.055555555555555546,0,0,0.055555555555555546,37.77777777777777,0)" xlink:href="#ar"/><use transform="matrix(0.055555555555555546,0,0,0.055555555555555546,48.88888888888888,0)" xlink:href="#ac"/></g></defs></g></svg>